<svg version="1.1" id="Layer_1" xmlns="http://www.w3.org/2000/svg" xmlns:xlink="http://www.w3.org/1999/xlink" x="0px" y="0px"
	 width="100%" viewBox="0 0 4960 5000" enable-background="new 0 0 4960 5000" xml:space="preserve">
<path fill="#FFFFFF" opacity="1.000000" stroke="none" 
	d="
M2768.000000,5004.000000 
	C1845.333374,5004.000000 924.666687,5004.000000 4.000000,5004.000000 
	C4.000000,3337.333252 4.000000,1670.666626 4.000000,4.000001 
	C1657.333374,4.000000 3310.666748,4.000000 4964.000000,4.000000 
	C4964.000000,1670.666626 4964.000000,3337.333252 4964.000000,5004.000000 
	C4232.666504,5004.000000 3501.333252,5004.000000 2768.000000,5004.000000 
M951.008545,1705.320068 
	C876.779297,1798.173950 810.106506,1896.091309 753.644165,2000.796143 
	C705.740356,2089.629883 666.058411,2181.801514 641.782593,2280.113770 
	C619.301697,2371.156494 614.140442,2462.485107 631.057983,2555.475098 
	C676.820557,2807.016113 920.985413,2990.209961 1192.987183,2934.639893 
	C1443.527100,2883.454346 1609.491699,2641.909180 1562.687866,2385.274902 
	C1542.064697,2272.194092 1486.539429,2178.244385 1397.558105,2105.459717 
	C1299.891235,2025.570312 1187.309448,1990.311279 1061.183960,1999.193481 
	C1053.979004,1999.700928 1046.759644,2000.001587 1039.049927,2000.425781 
	C1035.764160,1994.279053 1032.903320,1989.089233 1030.196655,1983.820312 
	C1027.153198,1977.896118 1024.198242,1971.925293 1021.299194,1965.928955 
	C1018.690125,1960.532349 1016.155579,1955.098022 1013.686218,1949.635986 
	C1011.217407,1944.175049 1008.818726,1938.680664 1006.483948,1933.161011 
	C1004.149170,1927.641602 1001.878845,1922.093628 999.676575,1916.519897 
	C997.229675,1910.327393 994.791931,1904.127808 992.535889,1897.864502 
	C990.505615,1892.227783 988.712158,1886.505249 986.840881,1880.811890 
	C984.969849,1875.119263 983.000610,1869.454102 981.314392,1863.706665 
	C979.439941,1857.317383 977.767578,1850.865845 976.135864,1844.409058 
	C974.667542,1838.598389 973.311401,1832.757446 972.019592,1826.904785 
	C970.727661,1821.051758 969.473022,1815.186646 968.391602,1809.292114 
	C967.189575,1802.739258 966.073120,1796.165039 965.158630,1789.567017 
	C964.335693,1783.629395 963.839172,1777.646606 963.194092,1771.684326 
	C962.548950,1765.720947 961.763428,1759.768799 961.287842,1753.791992 
	C960.812500,1747.817261 960.545837,1741.820801 960.368652,1735.828613 
	C960.171753,1729.167725 960.391174,1722.489136 960.032104,1715.839844 
	C959.734802,1710.334229 961.543396,1704.386597 958.181824,1698.377808 
	C955.605286,1700.611450 954.155762,1701.868042 951.008545,1705.320068 
M2090.197998,2551.922607 
	C2073.680420,2512.051758 2046.918701,2480.998779 2006.901245,2464.483643 
	C1942.952759,2438.092529 1883.167603,2445.547363 1830.120117,2492.285645 
	C1826.890991,2495.130859 1823.279053,2497.541504 1817.703125,2501.783936 
	C1817.432007,2492.527344 1817.084351,2486.027100 1817.076782,2479.526367 
	C1817.026245,2436.209961 1817.068237,2392.893799 1817.021729,2349.577393 
	C1817.015991,2344.255859 1817.198486,2338.848877 1816.361450,2333.631104 
	C1814.510742,2322.093994 1804.397705,2313.768066 1792.479004,2313.281982 
	C1780.540161,2312.794922 1770.226807,2320.463867 1767.441772,2332.069092 
	C1766.824829,2334.640381 1766.612915,2337.329834 1766.433228,2339.979492 
	C1766.253052,2342.634521 1766.331055,2345.307861 1766.322144,2347.973145 
	C1766.030029,2435.927734 1765.736572,2523.882568 1765.454346,2611.837158 
	C1765.387695,2632.603027 1767.044678,2653.232666 1774.056763,2672.896729 
	C1798.141235,2740.436768 1846.360962,2778.758789 1917.301514,2786.188232 
	C1996.571655,2794.490723 2070.029785,2750.005859 2094.735596,2670.612549 
	C2106.786621,2631.885498 2104.957520,2593.036621 2090.197998,2551.922607 
M3860.413330,2577.475830 
	C3830.697510,2456.428955 3699.074951,2421.226807 3611.603760,2472.042236 
	C3549.488037,2508.128418 3523.724854,2565.044189 3529.190918,2635.345947 
	C3533.529053,2691.139160 3559.979980,2735.260986 3608.483398,2764.691895 
	C3664.846436,2798.891357 3747.490479,2795.968506 3801.063232,2744.282715 
	C3804.057617,2741.393555 3805.998779,2735.936279 3812.153076,2737.861572 
	C3812.962158,2747.106689 3812.875977,2756.532471 3814.794434,2765.531250 
	C3817.484863,2778.150146 3828.606445,2785.017822 3841.909180,2783.835205 
	C3853.923340,2782.766846 3862.963623,2774.304199 3864.531982,2762.281982 
	C3865.046143,2758.342041 3864.895020,2754.303711 3864.896240,2750.310303 
	C3864.908447,2706.345703 3865.166016,2662.378418 3864.707031,2618.418457 
	C3864.575928,2605.852539 3862.342773,2593.308105 3860.413330,2577.475830 
M2295.675293,2778.406250 
	C2301.433594,2780.041504 2307.124756,2781.992676 2312.967773,2783.228027 
	C2319.469482,2784.602051 2326.083984,2785.559082 2332.695801,2786.260498 
	C2338.637695,2786.890625 2344.648193,2787.245850 2350.618164,2787.141846 
	C2357.251953,2787.026367 2363.896973,2786.452637 2370.495361,2785.708252 
	C2376.440186,2785.037354 2382.422119,2784.245117 2388.217285,2782.815430 
	C2394.656250,2781.227051 2400.992432,2779.096436 2407.205078,2776.754883 
	C2412.789062,2774.650146 2418.287109,2772.209717 2423.563965,2769.425537 
	C2429.436035,2766.327637 2435.183838,2762.921387 2440.671875,2759.188477 
	C2445.610352,2755.829102 2450.042969,2751.735840 2454.848633,2748.168213 
	C2459.825195,2744.473877 2462.769531,2737.787842 2471.182617,2736.055420 
	C2471.378662,2744.709961 2471.726807,2751.854004 2471.665039,2758.994141 
	C2471.527344,2774.942627 2484.742676,2783.400879 2495.166504,2783.940674 
	C2509.689941,2784.692383 2520.939209,2775.752930 2523.005615,2761.134521 
	C2523.468018,2757.861084 2523.339600,2754.492432 2523.340332,2751.167480 
	C2523.348877,2706.566162 2523.790527,2661.957031 2523.059082,2617.367676 
	C2522.821045,2602.865479 2520.933105,2588.049561 2517.354004,2574.000244 
	C2497.475342,2495.966064 2427.377197,2445.356445 2346.090088,2450.224365 
	C2279.166016,2454.232178 2230.401367,2486.347412 2201.310303,2546.998535 
	C2188.662598,2573.367920 2184.691895,2601.711670 2187.006592,2630.700439 
	C2192.604248,2700.802490 2226.931152,2750.441650 2295.675293,2778.406250 
M3161.297607,2543.353027 
	C3145.476318,2557.638428 3129.661621,2571.930908 3113.829590,2586.204590 
	C3109.873291,2589.771484 3105.881104,2593.300049 3101.861572,2596.795898 
	C3100.864258,2597.663330 3099.757568,2598.462158 3098.575439,2599.030762 
	C3098.132568,2599.243896 3097.331299,2598.712646 3095.403809,2598.132324 
	C3092.975830,2592.626221 3094.176758,2586.010986 3094.169678,2579.665039 
	C3094.084473,2503.722900 3094.140869,2427.781006 3094.063965,2351.838867 
	C3094.057129,2345.205566 3094.087891,2338.433105 3092.837402,2331.969971 
	C3090.580078,2320.300781 3079.954102,2312.784912 3067.907959,2313.313721 
	C3055.692627,2313.850342 3045.990479,2321.982178 3044.307373,2333.758057 
	C3043.559082,2338.994141 3043.827393,2344.391602 3043.826416,2349.715820 
	C3043.805908,2482.281250 3043.808838,2614.846924 3043.817627,2747.412354 
	C3043.817871,2752.074219 3043.586182,2756.767822 3044.031006,2761.391846 
	C3045.312988,2774.717773 3054.499268,2783.344482 3067.589355,2783.888672 
	C3081.774170,2784.478271 3091.708252,2776.255371 3093.571777,2761.885986 
	C3094.253174,2756.631836 3094.081543,2751.251465 3094.093506,2745.928467 
	C3094.144531,2723.279053 3094.100342,2700.629883 3094.133301,2677.980469 
	C3094.141113,2672.684082 3093.638672,2667.192383 3098.107910,2663.082031 
	C3107.420654,2654.517090 3116.706543,2645.921875 3126.107666,2637.454590 
	C3128.945557,2634.898438 3132.126221,2632.722656 3136.031006,2629.687988 
	C3141.047607,2635.415283 3145.492188,2640.195557 3149.612793,2645.240479 
	C3182.899170,2685.994385 3216.107910,2726.811768 3249.393311,2767.566406 
	C3253.177002,2772.198730 3256.842529,2777.084717 3261.344482,2780.940430 
	C3270.555664,2788.829590 3282.666504,2787.894287 3292.173828,2779.282471 
	C3300.924072,2771.356445 3302.820557,2760.408691 3296.675781,2750.481934 
	C3293.888672,2745.979248 3290.337402,2741.932617 3286.982666,2737.801025 
	C3252.134033,2694.883545 3217.227539,2652.012939 3182.428955,2609.055176 
	C3179.222168,2605.096436 3174.780762,2601.710449 3174.144287,2595.175049 
	C3178.846680,2590.682861 3183.508545,2586.023193 3188.387207,2581.602783 
	C3218.499756,2554.320068 3248.670898,2527.101807 3278.795410,2499.832520 
	C3283.237305,2495.811768 3287.872559,2491.931396 3291.831787,2487.466309 
	C3299.830811,2478.445312 3299.610352,2468.223633 3291.747314,2458.546875 
	C3284.195068,2449.253174 3273.181152,2446.579346 3263.324219,2452.480469 
	C3258.247314,2455.519531 3253.836426,2459.759521 3249.394531,2463.756836 
	C3220.677246,2489.603027 3192.034180,2515.531494 3161.297607,2543.353027 
M4284.661621,2607.659180 
	C4284.252930,2593.591309 4281.735352,2579.889893 4277.629883,2566.446289 
	C4254.998535,2492.340088 4187.762695,2446.397705 4108.542480,2450.000000 
	C4035.692871,2453.312988 3979.006592,2496.645020 3957.461670,2560.880371 
	C3947.319336,2591.119385 3945.202148,2622.148438 3951.613281,2653.519531 
	C3963.755859,2712.935059 3997.733154,2754.378418 4054.487793,2776.178223 
	C4084.301270,2787.629639 4115.308594,2790.110596 4146.861328,2784.557861 
	C4206.561523,2774.051514 4248.800781,2741.385986 4272.639160,2685.410645 
	C4282.756836,2661.652588 4285.618164,2636.681641 4284.661621,2607.659180 
M2623.776855,2498.474609 
	C2623.777344,2581.061523 2623.773682,2663.648682 2623.787842,2746.235596 
	C2623.788818,2751.561768 2623.501709,2756.935547 2624.091797,2762.204102 
	C2625.455322,2774.377930 2634.324219,2782.710449 2646.514893,2783.867188 
	C2659.899414,2785.137451 2670.498779,2778.318604 2673.549072,2765.528320 
	C2674.915283,2759.800293 2674.945557,2753.667236 2674.957764,2747.716797 
	C2675.059570,2697.765137 2675.014160,2647.813232 2675.020264,2597.861572 
	C2675.020752,2591.867432 2675.029541,2585.872803 2675.099854,2579.879150 
	C2675.348145,2558.705078 2684.071533,2541.278809 2698.906738,2526.654297 
	C2709.528320,2516.183594 2722.137207,2508.798340 2736.268066,2504.270508 
	C2760.997070,2496.347168 2786.128174,2495.658447 2811.048096,2502.798340 
	C2846.779297,2513.036133 2869.513916,2536.188721 2876.700195,2573.105469 
	C2878.846191,2584.129150 2879.838379,2595.533936 2879.925537,2606.775391 
	C2880.282227,2652.728027 2880.079102,2698.685303 2880.097412,2744.640869 
	C2880.099609,2749.967773 2879.800049,2755.333740 2880.322998,2760.614014 
	C2881.699951,2774.516113 2891.968750,2783.801758 2905.574951,2783.902588 
	C2918.217529,2783.995850 2928.646484,2775.526855 2930.856445,2762.811279 
	C2931.646240,2758.265381 2931.415527,2753.518066 2931.418213,2748.862793 
	C2931.445801,2700.909180 2931.681152,2652.953369 2931.252686,2605.003418 
	C2931.134521,2591.750244 2930.100830,2578.302734 2927.589600,2565.311035 
	C2919.620117,2524.078125 2899.504150,2489.800049 2861.750244,2469.998535 
	C2802.662354,2439.007812 2744.193604,2440.503418 2688.585938,2480.084473 
	C2684.934814,2482.683350 2681.314941,2485.326416 2676.552734,2488.762451 
	C2675.409668,2481.982422 2674.966309,2476.758789 2673.605469,2471.785645 
	C2670.118652,2459.045166 2659.155518,2451.523682 2646.743652,2452.888428 
	C2634.100586,2454.278564 2625.081055,2463.486572 2623.987793,2476.683105 
	C2623.493896,2482.639404 2623.821777,2488.663818 2623.776855,2498.474609 
M3394.535156,2724.373779 
	C3390.757324,2728.058350 3386.292725,2731.263672 3383.326172,2735.514160 
	C3373.197510,2750.027344 3374.725098,2768.565918 3386.515869,2781.400635 
	C3398.019775,2793.921875 3417.480225,2797.072998 3432.060059,2788.774414 
	C3447.298828,2780.100586 3454.448486,2762.665283 3449.513672,2746.212402 
	C3444.303955,2728.843018 3430.227783,2718.334717 3412.395020,2719.286621 
	C3407.254639,2719.560791 3402.214844,2721.724854 3394.535156,2724.373779 
z"/>
<path fill="#0E5282" opacity="1.000000" stroke="none" 
	d="
M951.857422,1704.222290 
	C954.155762,1701.868042 955.605286,1700.611450 958.181824,1698.377808 
	C961.543396,1704.386597 959.734802,1710.334229 960.032104,1715.839844 
	C960.391174,1722.489136 960.171753,1729.167725 960.368652,1735.828613 
	C960.545837,1741.820801 960.812500,1747.817261 961.287842,1753.791992 
	C961.763428,1759.768799 962.548950,1765.720947 963.194092,1771.684326 
	C963.839172,1777.646606 964.335693,1783.629395 965.158630,1789.567017 
	C966.073120,1796.165039 967.189575,1802.739258 968.391602,1809.292114 
	C969.473022,1815.186646 970.727661,1821.051758 972.019592,1826.904785 
	C973.311401,1832.757446 974.667542,1838.598389 976.135864,1844.409058 
	C977.767578,1850.865845 979.439941,1857.317383 981.314392,1863.706665 
	C983.000610,1869.454102 984.969849,1875.119263 986.840881,1880.811890 
	C988.712158,1886.505249 990.505615,1892.227783 992.535889,1897.864502 
	C994.791931,1904.127808 997.229675,1910.327393 999.676575,1916.519897 
	C1001.878845,1922.093628 1004.149170,1927.641602 1006.483948,1933.161011 
	C1008.818726,1938.680664 1011.217407,1944.175049 1013.686218,1949.635986 
	C1016.155579,1955.098022 1018.690125,1960.532349 1021.299194,1965.928955 
	C1024.198242,1971.925293 1027.153198,1977.896118 1030.196655,1983.820312 
	C1032.903320,1989.089233 1035.764160,1994.279053 1039.049927,2000.425781 
	C1046.759644,2000.001587 1053.979004,1999.700928 1061.183960,1999.193481 
	C1187.309448,1990.311279 1299.891235,2025.570312 1397.558105,2105.459717 
	C1486.539429,2178.244385 1542.064697,2272.194092 1562.687866,2385.274902 
	C1609.491699,2641.909180 1443.527100,2883.454346 1192.987183,2934.639893 
	C920.985413,2990.209961 676.820557,2807.016113 631.057983,2555.475098 
	C614.140442,2462.485107 619.301697,2371.156494 641.782593,2280.113770 
	C666.058411,2181.801514 705.740356,2089.629883 753.644165,2000.796143 
	C810.106506,1896.091309 876.779297,1798.173950 951.857422,1704.222290 
M1312.906860,2397.527832 
	C1283.350342,2300.250732 1180.989990,2227.270752 1063.022583,2251.872803 
	C946.370422,2276.200195 871.998474,2392.141846 897.982666,2508.485107 
	C921.165039,2612.283203 1014.497131,2679.612549 1110.586670,2676.495117 
	C1200.146362,2673.589600 1264.782104,2630.762451 1303.490845,2550.517090 
	C1326.651489,2502.503662 1328.986206,2451.854492 1312.906860,2397.527832 
z"/>
<path fill="#135584" opacity="1.000000" stroke="none" 
	d="
M2090.796875,2553.354004 
	C2104.957520,2593.036621 2106.786621,2631.885498 2094.735596,2670.612549 
	C2070.029785,2750.005859 1996.571655,2794.490723 1917.301514,2786.188232 
	C1846.360962,2778.758789 1798.141235,2740.436768 1774.056763,2672.896729 
	C1767.044678,2653.232666 1765.387695,2632.603027 1765.454346,2611.837158 
	C1765.736572,2523.882568 1766.030029,2435.927734 1766.322144,2347.973145 
	C1766.331055,2345.307861 1766.253052,2342.634521 1766.433228,2339.979492 
	C1766.612915,2337.329834 1766.824829,2334.640381 1767.441772,2332.069092 
	C1770.226807,2320.463867 1780.540161,2312.794922 1792.479004,2313.281982 
	C1804.397705,2313.768066 1814.510742,2322.093994 1816.361450,2333.631104 
	C1817.198486,2338.848877 1817.015991,2344.255859 1817.021729,2349.577393 
	C1817.068237,2392.893799 1817.026245,2436.209961 1817.076782,2479.526367 
	C1817.084351,2486.027100 1817.432007,2492.527344 1817.703125,2501.783936 
	C1823.279053,2497.541504 1826.890991,2495.130859 1830.120117,2492.285645 
	C1883.167603,2445.547363 1942.952759,2438.092529 2006.901245,2464.483643 
	C2046.918701,2480.998779 2073.680420,2512.051758 2090.796875,2553.354004 
M1827.880371,2673.105713 
	C1830.473755,2677.750732 1832.817017,2682.557373 1835.698120,2687.016357 
	C1877.928589,2752.377197 1972.281982,2759.041260 2023.231689,2700.079834 
	C2044.196777,2675.818115 2052.962891,2647.212891 2052.411133,2615.222168 
	C2051.340332,2553.165283 2010.223145,2505.318604 1948.869507,2497.603516 
	C1883.583740,2489.394287 1837.822021,2530.388672 1823.317139,2574.726562 
	C1812.746460,2607.038818 1813.275513,2638.857910 1827.880371,2673.105713 
z"/>
<path fill="#135584" opacity="1.000000" stroke="none" 
	d="
M3860.743408,2579.114746 
	C3862.342773,2593.308105 3864.575928,2605.852539 3864.707031,2618.418457 
	C3865.166016,2662.378418 3864.908447,2706.345703 3864.896240,2750.310303 
	C3864.895020,2754.303711 3865.046143,2758.342041 3864.531982,2762.281982 
	C3862.963623,2774.304199 3853.923340,2782.766846 3841.909180,2783.835205 
	C3828.606445,2785.017822 3817.484863,2778.150146 3814.794434,2765.531250 
	C3812.875977,2756.532471 3812.962158,2747.106689 3812.153076,2737.861572 
	C3805.998779,2735.936279 3804.057617,2741.393555 3801.063232,2744.282715 
	C3747.490479,2795.968506 3664.846436,2798.891357 3608.483398,2764.691895 
	C3559.979980,2735.260986 3533.529053,2691.139160 3529.190918,2635.345947 
	C3523.724854,2565.044189 3549.488037,2508.128418 3611.603760,2472.042236 
	C3699.074951,2421.226807 3830.697510,2456.428955 3860.743408,2579.114746 
M3735.024414,2734.414795 
	C3773.518799,2720.583252 3798.559326,2693.910400 3809.817383,2654.729004 
	C3815.391357,2635.330078 3816.111328,2615.568604 3812.708984,2595.407227 
	C3803.516357,2540.933594 3759.932861,2500.228271 3704.940918,2496.816650 
	C3642.762695,2492.959229 3597.317871,2532.929688 3583.500977,2580.885742 
	C3578.049316,2599.807129 3577.481201,2618.942139 3579.679688,2638.287354 
	C3584.999023,2685.086670 3619.265381,2724.330566 3664.825195,2736.151611 
	C3687.294922,2741.981445 3709.632080,2741.458740 3735.024414,2734.414795 
z"/>
<path fill="#135584" opacity="1.000000" stroke="none" 
	d="
M2294.231201,2777.786133 
	C2226.931152,2750.441650 2192.604248,2700.802490 2187.006592,2630.700439 
	C2184.691895,2601.711670 2188.662598,2573.367920 2201.310303,2546.998535 
	C2230.401367,2486.347412 2279.166016,2454.232178 2346.090088,2450.224365 
	C2427.377197,2445.356445 2497.475342,2495.966064 2517.354004,2574.000244 
	C2520.933105,2588.049561 2522.821045,2602.865479 2523.059082,2617.367676 
	C2523.790527,2661.957031 2523.348877,2706.566162 2523.340332,2751.167480 
	C2523.339600,2754.492432 2523.468018,2757.861084 2523.005615,2761.134521 
	C2520.939209,2775.752930 2509.689941,2784.692383 2495.166504,2783.940674 
	C2484.742676,2783.400879 2471.527344,2774.942627 2471.665039,2758.994141 
	C2471.726807,2751.854004 2471.378662,2744.709961 2471.182617,2736.055420 
	C2462.769531,2737.787842 2459.825195,2744.473877 2454.848633,2748.168213 
	C2450.042969,2751.735840 2445.610352,2755.829102 2440.671875,2759.188477 
	C2435.183838,2762.921387 2429.436035,2766.327637 2423.563965,2769.425537 
	C2418.287109,2772.209717 2412.789062,2774.650146 2407.205078,2776.754883 
	C2400.992432,2779.096436 2394.656250,2781.227051 2388.217285,2782.815430 
	C2382.422119,2784.245117 2376.440186,2785.037354 2370.495361,2785.708252 
	C2363.896973,2786.452637 2357.251953,2787.026367 2350.618164,2787.141846 
	C2344.648193,2787.245850 2338.637695,2786.890625 2332.695801,2786.260498 
	C2326.083984,2785.559082 2319.469482,2784.602051 2312.967773,2783.228027 
	C2307.124756,2781.992676 2301.433594,2780.041504 2294.231201,2777.786133 
M2384.249023,2500.189209 
	C2380.320312,2499.457031 2376.403320,2498.656006 2372.461426,2498.003418 
	C2331.205078,2491.173828 2279.224854,2507.646729 2252.292480,2555.584717 
	C2234.798584,2586.722656 2231.099121,2620.173096 2240.904541,2654.160645 
	C2254.771240,2702.225586 2287.351807,2731.572021 2336.812988,2738.862793 
	C2393.299805,2747.189453 2435.138672,2719.793213 2455.798584,2683.062256 
	C2477.107910,2645.176514 2478.612549,2605.576172 2461.586670,2565.879150 
	C2447.381836,2532.759277 2421.837891,2511.520508 2384.249023,2500.189209 
z"/>
<path fill="#125483" opacity="1.000000" stroke="none" 
	d="
M3162.332031,2542.393066 
	C3192.034180,2515.531494 3220.677246,2489.603027 3249.394531,2463.756836 
	C3253.836426,2459.759521 3258.247314,2455.519531 3263.324219,2452.480469 
	C3273.181152,2446.579346 3284.195068,2449.253174 3291.747314,2458.546875 
	C3299.610352,2468.223633 3299.830811,2478.445312 3291.831787,2487.466309 
	C3287.872559,2491.931396 3283.237305,2495.811768 3278.795410,2499.832520 
	C3248.670898,2527.101807 3218.499756,2554.320068 3188.387207,2581.602783 
	C3183.508545,2586.023193 3178.846680,2590.682861 3174.144287,2595.175049 
	C3174.780762,2601.710449 3179.222168,2605.096436 3182.428955,2609.055176 
	C3217.227539,2652.012939 3252.134033,2694.883545 3286.982666,2737.801025 
	C3290.337402,2741.932617 3293.888672,2745.979248 3296.675781,2750.481934 
	C3302.820557,2760.408691 3300.924072,2771.356445 3292.173828,2779.282471 
	C3282.666504,2787.894287 3270.555664,2788.829590 3261.344482,2780.940430 
	C3256.842529,2777.084717 3253.177002,2772.198730 3249.393311,2767.566406 
	C3216.107910,2726.811768 3182.899170,2685.994385 3149.612793,2645.240479 
	C3145.492188,2640.195557 3141.047607,2635.415283 3136.031006,2629.687988 
	C3132.126221,2632.722656 3128.945557,2634.898438 3126.107666,2637.454590 
	C3116.706543,2645.921875 3107.420654,2654.517090 3098.107910,2663.082031 
	C3093.638672,2667.192383 3094.141113,2672.684082 3094.133301,2677.980469 
	C3094.100342,2700.629883 3094.144531,2723.279053 3094.093506,2745.928467 
	C3094.081543,2751.251465 3094.253174,2756.631836 3093.571777,2761.885986 
	C3091.708252,2776.255371 3081.774170,2784.478271 3067.589355,2783.888672 
	C3054.499268,2783.344482 3045.312988,2774.717773 3044.031006,2761.391846 
	C3043.586182,2756.767822 3043.817871,2752.074219 3043.817627,2747.412354 
	C3043.808838,2614.846924 3043.805908,2482.281250 3043.826416,2349.715820 
	C3043.827393,2344.391602 3043.559082,2338.994141 3044.307373,2333.758057 
	C3045.990479,2321.982178 3055.692627,2313.850342 3067.907959,2313.313721 
	C3079.954102,2312.784912 3090.580078,2320.300781 3092.837402,2331.969971 
	C3094.087891,2338.433105 3094.057129,2345.205566 3094.063965,2351.838867 
	C3094.140869,2427.781006 3094.084473,2503.722900 3094.169678,2579.665039 
	C3094.176758,2586.010986 3092.975830,2592.626221 3095.403809,2598.132324 
	C3097.331299,2598.712646 3098.132568,2599.243896 3098.575439,2599.030762 
	C3099.757568,2598.462158 3100.864258,2597.663330 3101.861572,2596.795898 
	C3105.881104,2593.300049 3109.873291,2589.771484 3113.829590,2586.204590 
	C3129.661621,2571.930908 3145.476318,2557.638428 3162.332031,2542.393066 
z"/>
<path fill="#135584" opacity="1.000000" stroke="none" 
	d="
M4284.723633,2609.389648 
	C4285.618164,2636.681641 4282.756836,2661.652588 4272.639160,2685.410645 
	C4248.800781,2741.385986 4206.561523,2774.051514 4146.861328,2784.557861 
	C4115.308594,2790.110596 4084.301270,2787.629639 4054.487793,2776.178223 
	C3997.733154,2754.378418 3963.755859,2712.935059 3951.613281,2653.519531 
	C3945.202148,2622.148438 3947.319336,2591.119385 3957.461670,2560.880371 
	C3979.006592,2496.645020 4035.692871,2453.312988 4108.542480,2450.000000 
	C4187.762695,2446.397705 4254.998535,2492.340088 4277.629883,2566.446289 
	C4281.735352,2579.889893 4284.252930,2593.591309 4284.723633,2609.389648 
M4200.508789,2706.505371 
	C4222.669434,2684.085449 4233.229492,2656.474609 4234.612793,2625.594238 
	C4237.542969,2560.152832 4198.500000,2505.873047 4131.947754,2497.495361 
	C4077.682129,2490.664551 4021.908203,2519.889404 4003.780273,2579.468506 
	C3998.058838,2598.272705 3996.971191,2617.521240 3999.626953,2636.793945 
	C4005.968018,2682.812500 4029.937012,2716.326172 4073.979736,2732.267578 
	C4119.467285,2748.732178 4161.735840,2741.378174 4200.508789,2706.505371 
z"/>
<path fill="#155685" opacity="1.000000" stroke="none" 
	d="
M2623.776855,2496.565918 
	C2623.821777,2488.663818 2623.493896,2482.639404 2623.987793,2476.683105 
	C2625.081055,2463.486572 2634.100586,2454.278564 2646.743652,2452.888428 
	C2659.155518,2451.523682 2670.118652,2459.045166 2673.605469,2471.785645 
	C2674.966309,2476.758789 2675.409668,2481.982422 2676.552734,2488.762451 
	C2681.314941,2485.326416 2684.934814,2482.683350 2688.585938,2480.084473 
	C2744.193604,2440.503418 2802.662354,2439.007812 2861.750244,2469.998535 
	C2899.504150,2489.800049 2919.620117,2524.078125 2927.589600,2565.311035 
	C2930.100830,2578.302734 2931.134521,2591.750244 2931.252686,2605.003418 
	C2931.681152,2652.953369 2931.445801,2700.909180 2931.418213,2748.862793 
	C2931.415527,2753.518066 2931.646240,2758.265381 2930.856445,2762.811279 
	C2928.646484,2775.526855 2918.217529,2783.995850 2905.574951,2783.902588 
	C2891.968750,2783.801758 2881.699951,2774.516113 2880.322998,2760.614014 
	C2879.800049,2755.333740 2880.099609,2749.967773 2880.097412,2744.640869 
	C2880.079102,2698.685303 2880.282227,2652.728027 2879.925537,2606.775391 
	C2879.838379,2595.533936 2878.846191,2584.129150 2876.700195,2573.105469 
	C2869.513916,2536.188721 2846.779297,2513.036133 2811.048096,2502.798340 
	C2786.128174,2495.658447 2760.997070,2496.347168 2736.268066,2504.270508 
	C2722.137207,2508.798340 2709.528320,2516.183594 2698.906738,2526.654297 
	C2684.071533,2541.278809 2675.348145,2558.705078 2675.099854,2579.879150 
	C2675.029541,2585.872803 2675.020752,2591.867432 2675.020264,2597.861572 
	C2675.014160,2647.813232 2675.059570,2697.765137 2674.957764,2747.716797 
	C2674.945557,2753.667236 2674.915283,2759.800293 2673.549072,2765.528320 
	C2670.498779,2778.318604 2659.899414,2785.137451 2646.514893,2783.867188 
	C2634.324219,2782.710449 2625.455322,2774.377930 2624.091797,2762.204102 
	C2623.501709,2756.935547 2623.788818,2751.561768 2623.787842,2746.235596 
	C2623.773682,2663.648682 2623.777344,2581.061523 2623.776855,2496.565918 
z"/>
<path fill="#155685" opacity="1.000000" stroke="none" 
	d="
M3395.832031,2723.698242 
	C3402.214844,2721.724854 3407.254639,2719.560791 3412.395020,2719.286621 
	C3430.227783,2718.334717 3444.303955,2728.843018 3449.513672,2746.212402 
	C3454.448486,2762.665283 3447.298828,2780.100586 3432.060059,2788.774414 
	C3417.480225,2797.072998 3398.019775,2793.921875 3386.515869,2781.400635 
	C3374.725098,2768.565918 3373.197510,2750.027344 3383.326172,2735.514160 
	C3386.292725,2731.263672 3390.757324,2728.058350 3395.832031,2723.698242 
z"/>
<path fill="#FDFEFE" opacity="1.000000" stroke="none" 
	d="
M1313.449707,2399.051758 
	C1328.986206,2451.854492 1326.651489,2502.503662 1303.490845,2550.517090 
	C1264.782104,2630.762451 1200.146362,2673.589600 1110.586670,2676.495117 
	C1014.497131,2679.612549 921.165039,2612.283203 897.982666,2508.485107 
	C871.998474,2392.141846 946.370422,2276.200195 1063.022583,2251.872803 
	C1180.989990,2227.270752 1283.350342,2300.250732 1313.449707,2399.051758 
z"/>
<path fill="#FDFDFE" opacity="1.000000" stroke="none" 
	d="
M1827.273560,2671.691895 
	C1813.275513,2638.857910 1812.746460,2607.038818 1823.317139,2574.726562 
	C1837.822021,2530.388672 1883.583740,2489.394287 1948.869507,2497.603516 
	C2010.223145,2505.318604 2051.340332,2553.165283 2052.411133,2615.222168 
	C2052.962891,2647.212891 2044.196777,2675.818115 2023.231689,2700.079834 
	C1972.281982,2759.041260 1877.928589,2752.377197 1835.698120,2687.016357 
	C1832.817017,2682.557373 1830.473755,2677.750732 1827.273560,2671.691895 
z"/>
<path fill="#FCFDFE" opacity="1.000000" stroke="none" 
	d="
M3733.480469,2734.904297 
	C3709.632080,2741.458740 3687.294922,2741.981445 3664.825195,2736.151611 
	C3619.265381,2724.330566 3584.999023,2685.086670 3579.679688,2638.287354 
	C3577.481201,2618.942139 3578.049316,2599.807129 3583.500977,2580.885742 
	C3597.317871,2532.929688 3642.762695,2492.959229 3704.940918,2496.816650 
	C3759.932861,2500.228271 3803.516357,2540.933594 3812.708984,2595.407227 
	C3816.111328,2615.568604 3815.391357,2635.330078 3809.817383,2654.729004 
	C3798.559326,2693.910400 3773.518799,2720.583252 3733.480469,2734.904297 
z"/>
<path fill="#FDFDFE" opacity="1.000000" stroke="none" 
	d="
M2385.847168,2500.546143 
	C2421.837891,2511.520508 2447.381836,2532.759277 2461.586670,2565.879150 
	C2478.612549,2605.576172 2477.107910,2645.176514 2455.798584,2683.062256 
	C2435.138672,2719.793213 2393.299805,2747.189453 2336.812988,2738.862793 
	C2287.351807,2731.572021 2254.771240,2702.225586 2240.904541,2654.160645 
	C2231.099121,2620.173096 2234.798584,2586.722656 2252.292480,2555.584717 
	C2279.224854,2507.646729 2331.205078,2491.173828 2372.461426,2498.003418 
	C2376.403320,2498.656006 2380.320312,2499.457031 2385.847168,2500.546143 
z"/>
<path fill="#FCFDFE" opacity="1.000000" stroke="none" 
	d="
M4199.495117,2707.516602 
	C4161.735840,2741.378174 4119.467285,2748.732178 4073.979736,2732.267578 
	C4029.937012,2716.326172 4005.968018,2682.812500 3999.626953,2636.793945 
	C3996.971191,2617.521240 3998.058838,2598.272705 4003.780273,2579.468506 
	C4021.908203,2519.889404 4077.682129,2490.664551 4131.947754,2497.495361 
	C4198.500000,2505.873047 4237.542969,2560.152832 4234.612793,2625.594238 
	C4233.229492,2656.474609 4222.669434,2684.085449 4199.495117,2707.516602 
z"/>
</svg>